<?xml version="1.0" encoding="utf-8"?>
<!-- Generator: Adobe Illustrator 16.0.3, SVG Export Plug-In . SVG Version: 6.00 Build 0)  -->
<!DOCTYPE svg PUBLIC "-//W3C//DTD SVG 1.1//EN" "http://www.w3.org/Graphics/SVG/1.1/DTD/svg11.dtd">
<svg version="1.1" id="Layer_1" xmlns="http://www.w3.org/2000/svg" xmlns:xlink="http://www.w3.org/1999/xlink" x="0px" y="0px"
	 width="566.054px" height="189.592px" viewBox="25.037 482.754 566.054 189.592"
	 enable-background="new 25.037 482.754 566.054 189.592" xml:space="preserve">
<g>
	<g>
		<path fill="#0071FE" d="M25.037,585.974h9.112v14.538l13.054-14.538h12.081l-13.256,13.822l13.669,22.629H49.56l-9.933-16.175
			l-5.478,5.578v10.597h-9.112V585.974z"/>
		<path fill="#0071FE" d="M62.604,622.422v-36.451h26.824v7.065H71.714v6.656H88.25v7.065H71.714v8.602h19.247v7.065H62.604V622.422
			z"/>
		<path fill="#0071FE" d="M100.359,611.519c1.604,1.433,3.216,2.553,4.838,3.354c1.622,0.801,3.522,1.202,5.707,1.202
			c0.615,0,1.313-0.067,2.099-0.205c0.783-0.135,1.527-0.367,2.228-0.691c0.698-0.324,1.288-0.759,1.766-1.307
			c0.478-0.545,0.716-1.212,0.716-1.995c0-0.921-0.343-1.628-1.025-2.124c-0.683-0.495-1.708-0.862-3.072-1.102l-7.577-1.227
			c-3.412-0.545-6.007-1.681-7.782-3.406c-1.774-1.723-2.662-3.932-2.662-6.631c0-2.185,0.41-4.069,1.227-5.658
			c0.82-1.585,1.919-2.873,3.302-3.864c1.383-0.988,2.968-1.723,4.762-2.203c1.793-0.478,3.66-0.716,5.605-0.716
			c3.039,0,5.964,0.597,8.779,1.793c2.815,1.196,5.248,2.938,7.295,5.22l-6.909,4.967c-1.197-1.466-2.638-2.601-4.327-3.402
			c-1.689-0.802-3.506-1.203-5.453-1.203c-0.511,0-1.074,0.086-1.689,0.257c-0.615,0.172-1.178,0.41-1.689,0.717
			c-0.511,0.306-0.939,0.691-1.279,1.15c-0.343,0.462-0.511,0.982-0.511,1.561c0,0.991,0.41,1.75,1.227,2.279
			c0.82,0.529,2.099,0.931,3.84,1.203l3.482,0.563c1.808,0.306,3.516,0.691,5.119,1.15c1.604,0.462,3.011,1.084,4.223,1.87
			c1.211,0.786,2.166,1.774,2.867,2.968c0.697,1.196,1.049,2.662,1.049,4.403c0,2.729-0.548,4.948-1.637,6.656
			c-1.092,1.707-2.476,3.029-4.146,3.965c-1.674,0.939-3.482,1.57-5.425,1.895c-1.943,0.324-3.77,0.486-5.478,0.486
			c-3.106,0-5.998-0.554-8.678-1.664c-2.681-1.108-5.266-3.029-7.757-5.759L100.359,611.519z"/>
		<path fill="#0071FE" d="M135.583,611.519c1.604,1.433,3.216,2.553,4.838,3.354c1.622,0.801,3.522,1.202,5.707,1.202
			c0.615,0,1.313-0.067,2.099-0.205c0.783-0.135,1.527-0.367,2.228-0.691c0.698-0.324,1.288-0.759,1.766-1.307
			c0.478-0.545,0.716-1.212,0.716-1.995c0-0.921-0.343-1.628-1.025-2.124c-0.683-0.495-1.708-0.862-3.072-1.102l-7.577-1.227
			c-3.412-0.545-6.007-1.681-7.781-3.406c-1.775-1.723-2.663-3.932-2.663-6.631c0-2.185,0.41-4.069,1.227-5.658
			c0.82-1.585,1.919-2.873,3.302-3.864c1.383-0.988,2.968-1.723,4.762-2.203c1.793-0.478,3.66-0.716,5.606-0.716
			c3.039,0,5.964,0.597,8.779,1.793c2.815,1.196,5.248,2.938,7.295,5.22l-6.909,4.967c-1.196-1.466-2.638-2.601-4.327-3.402
			c-1.689-0.802-3.506-1.203-5.453-1.203c-0.511,0-1.074,0.086-1.689,0.257c-0.615,0.172-1.178,0.41-1.689,0.717
			c-0.511,0.306-0.939,0.691-1.279,1.15c-0.343,0.462-0.511,0.982-0.511,1.561c0,0.991,0.41,1.75,1.227,2.279
			c0.82,0.529,2.099,0.931,3.84,1.203l3.482,0.563c1.809,0.306,3.516,0.691,5.119,1.15c1.604,0.462,3.011,1.084,4.223,1.87
			c1.211,0.786,2.167,1.774,2.867,2.968c0.698,1.196,1.049,2.662,1.049,4.403c0,2.729-0.548,4.948-1.637,6.656
			c-1.092,1.707-2.475,3.029-4.146,3.965c-1.674,0.939-3.482,1.57-5.425,1.895c-1.943,0.324-3.77,0.486-5.478,0.486
			c-3.106,0-5.998-0.554-8.678-1.664c-2.681-1.108-5.266-3.029-7.757-5.759L135.583,611.519z"/>
		<path fill="#0071FE" d="M167.171,585.974h9.113v28.771h14.232v7.678h-23.345V585.974L167.171,585.974z"/>
		<path fill="#0071FE" d="M194.533,622.422v-36.451h26.824v7.065h-17.714v6.656h16.536v7.065h-16.536v8.602h19.248v7.065h-28.357
			V622.422z"/>
		<path fill="#0071FE" d="M227.915,585.974h18.225c4.094,0,7.32,0.974,9.676,2.92c2.356,1.946,3.531,4.966,3.531,9.061
			c0,2.356-0.682,4.409-2.047,6.169c-1.365,1.756-3.192,2.978-5.478,3.659l8.345,14.643H249.98l-7.167-13.106h-5.787v13.106h-9.112
			V585.974L227.915,585.974z M237.027,602.56h8.345c1.469,0,2.644-0.392,3.531-1.179c0.888-0.786,1.331-2.028,1.331-3.736
			c0-1.704-0.443-2.952-1.331-3.736c-0.887-0.786-2.065-1.178-3.531-1.178h-8.345V602.56z"/>
		<path fill="#A0BB32" d="M261.615,585.974h28.155v7.065h-9.522v29.386h-9.113v-29.386h-9.522v-7.065H261.615z"/>
		<path fill="#A0BB32" d="M328.087,604.199c0,2.559-0.419,5-1.255,7.319c-0.835,2.323-2.041,4.37-3.61,6.145
			c-1.569,1.775-3.498,3.183-5.783,4.223c-2.286,1.041-4.881,1.561-7.782,1.561c-2.9,0-5.495-0.52-7.781-1.561
			c-2.286-1.04-4.217-2.447-5.783-4.223c-1.57-1.774-2.772-3.821-3.608-6.145c-0.835-2.319-1.254-4.761-1.254-7.319
			c0-2.558,0.416-5,1.254-7.319c0.835-2.319,2.038-4.37,3.608-6.145s3.498-3.183,5.783-4.223c2.286-1.041,4.881-1.561,7.781-1.561
			c2.901,0,5.496,0.52,7.782,1.561c2.285,1.043,4.214,2.451,5.783,4.223c1.569,1.774,2.772,3.822,3.61,6.145
			C327.668,599.199,328.087,601.638,328.087,604.199z M318.975,604.199c0-1.432-0.172-2.84-0.512-4.223
			c-0.342-1.383-0.878-2.619-1.612-3.712s-1.698-1.971-2.892-2.638c-1.196-0.664-2.629-0.997-4.299-0.997
			c-1.331,0-2.567,0.223-3.712,0.664c-1.144,0.443-2.124,1.126-2.943,2.047c-0.82,0.921-1.469,2.117-1.946,3.583
			c-0.478,1.469-0.716,3.226-0.716,5.272c0,1.331,0.144,2.681,0.434,4.045c0.291,1.365,0.793,2.61,1.509,3.736
			s1.671,2.041,2.867,2.739c1.193,0.7,2.696,1.049,4.504,1.049c1.671,0,3.106-0.339,4.3-1.024c1.193-0.683,2.157-1.57,2.892-2.662
			c0.734-1.093,1.27-2.329,1.612-3.712C318.803,606.987,318.975,605.598,318.975,604.199z"/>
		<path fill="#A0BB32" d="M333.457,585.974h17.635c2.458,0,4.538,0.307,6.246,0.921c1.704,0.615,3.097,1.47,4.174,2.559
			c1.074,1.093,1.852,2.39,2.328,3.893c0.478,1.502,0.717,3.157,0.717,4.966c0,1.228-0.205,2.559-0.615,3.993
			c-0.41,1.433-1.179,2.764-2.305,3.994c-1.126,1.229-2.681,2.261-4.657,3.097c-1.979,0.835-4.522,1.254-7.629,1.254h-6.68v11.775
			h-9.214V585.974z M342.57,603.891h7.243c1.024,0,1.894-0.153,2.609-0.463c0.717-0.306,1.298-0.716,1.741-1.227
			c0.444-0.511,0.769-1.102,0.974-1.766c0.205-0.667,0.309-1.355,0.309-2.074c0-1.843-0.462-3.241-1.383-4.199
			c-0.921-0.954-2.424-1.432-4.504-1.432h-6.986v11.16H342.57z"/>
		<path fill="#A0BB32" d="M376.19,585.974h9.419l13.77,36.451h-9.776l-1.843-5.734h-13.464l-1.842,5.734h-9.728L376.19,585.974z
			 M385.56,609.931l-4.504-15.049h-0.101l-4.505,15.049H385.56z"/>
		<path fill="#A0BB32" d="M432.289,615.359v7.065H401.01v-6.809l20.272-22.577h-18.685v-7.065h29.796v7.115l-20.016,22.268h19.911
			V615.359z"/>
	</g>
	<g>
		<path fill="#A0BB32" d="M119.998,634.545h13.476l6.505,26.479h0.104l6.713-26.479h13.323v36.767h-8.675l0.398-28.556h-0.104
			l-7.681,28.556h-8.106l-7.836-28.556h-0.104l0.352,28.556h-8.366V634.545z"/>
		<path fill="#A0BB32" d="M167.275,671.312v-36.767h27.057v7.127h-17.868v6.714h16.68v7.127h-16.68v8.675h19.416v7.127h-28.605
			V671.312z"/>
		<path fill="#A0BB32" d="M200.595,634.545h9.192v29.021h14.354v7.745h-23.547V634.545L200.595,634.545z"/>
		<path fill="#A0BB32" d="M221.722,634.545h27.98v7.127h-9.461v29.64h-9.058v-29.64h-9.461V634.545z"/>
		<path fill="#A0BB32" d="M281.881,664.188v7.127H250.33v-6.867l20.447-22.772H251.93v-7.126h30.052v7.179l-20.19,22.46H281.881z"/>
		<path fill="#A0BB32" d="M286.575,671.312v-36.767h27.057v7.127h-17.868v6.714h16.677v7.127h-16.677v8.675h19.416v7.127h-28.604
			V671.312z"/>
		<path fill="#A0BB32" d="M320.082,634.545h18.382c4.131,0,7.384,0.982,9.758,2.944c2.375,1.961,3.563,5.009,3.563,9.14
			c0,2.375-0.688,4.449-2.066,6.225c-1.377,1.774-3.219,3.005-5.526,3.69l8.419,14.768h-10.276l-7.228-13.22h-5.835v13.22h-9.192
			v-36.767H320.082z M329.274,651.277h8.418c1.481,0,2.668-0.395,3.562-1.188c0.894-0.792,1.344-2.047,1.344-3.77
			c0-1.72-0.447-2.978-1.344-3.77c-0.896-0.793-2.084-1.188-3.562-1.188h-8.418V651.277z"/>
		<path fill="#0071FE" d="M380.918,646.785c-0.655-1.72-1.687-3.072-3.097-4.055c-1.411-0.981-2.926-1.472-4.544-1.472
			c-1.273,0-2.461,0.224-3.563,0.674c-1.102,0.449-2.065,1.135-2.892,2.065c-0.826,0.93-1.472,2.136-1.937,3.613
			c-0.465,1.481-0.697,3.253-0.697,5.318c0,1.344,0.146,2.702,0.438,4.079c0.29,1.377,0.802,2.632,1.523,3.77
			c0.723,1.136,1.687,2.057,2.892,2.764c1.206,0.707,2.721,1.059,4.544,1.059c0.618,0,1.292-0.113,2.014-0.337
			c0.723-0.223,1.438-0.56,2.142-1.006c0.704-0.447,1.35-0.989,1.938-1.625c0.584-0.637,1.067-1.368,1.447-2.194l7.28,3.51
			c-1.586,2.892-3.666,5.181-6.249,6.866c-2.583,1.687-5.44,2.531-8.571,2.531c-2.925,0-5.541-0.523-7.849-1.576
			c-2.308-1.05-4.25-2.47-5.835-4.26c-1.586-1.79-2.797-3.855-3.642-6.196s-1.264-4.801-1.264-7.384s0.395-5.043,1.187-7.384
			c0.793-2.341,1.946-4.406,3.461-6.196s3.382-3.21,5.604-4.26s4.758-1.576,7.616-1.576c1.79,0,3.442,0.215,4.957,0.646
			c1.515,0.431,2.9,1.059,4.155,1.885c1.258,0.826,2.402,1.833,3.434,3.02c1.034,1.188,1.979,2.54,2.84,4.055L380.918,646.785z"/>
		<path fill="#0071FE" d="M392.121,634.545h9.191v13.22h13.177v-13.22h9.192v36.767h-9.192v-15.49h-13.177v15.49h-9.191V634.545z"/>
		<path fill="#0071FE" d="M430.796,671.312v-36.767h27.057v7.127h-17.867v6.714h16.68v7.127h-16.68v8.675H459.4v7.127h-28.604
			V671.312z"/>
		<path fill="#0071FE" d="M488.061,646.785c-0.654-1.72-1.686-3.072-3.097-4.055c-1.41-0.981-2.925-1.472-4.544-1.472
			c-1.272,0-2.46,0.224-3.562,0.674c-1.102,0.449-2.065,1.135-2.892,2.065c-0.826,0.93-1.473,2.136-1.938,3.613
			c-0.465,1.481-0.697,3.253-0.697,5.318c0,1.344,0.146,2.702,0.438,4.079s0.802,2.632,1.523,3.77
			c0.723,1.136,1.687,2.057,2.892,2.764c1.206,0.707,2.721,1.059,4.545,1.059c0.618,0,1.291-0.113,2.013-0.337
			c0.723-0.223,1.438-0.56,2.143-1.006c0.703-0.447,1.35-0.989,1.937-1.625c0.585-0.637,1.068-1.368,1.447-2.194l7.28,3.51
			c-1.585,2.892-3.666,5.181-6.249,6.866c-2.582,1.687-5.44,2.531-8.571,2.531c-2.925,0-5.541-0.523-7.849-1.576
			c-2.307-1.05-4.253-2.47-5.835-4.26c-1.585-1.79-2.797-3.855-3.642-6.196s-1.264-4.801-1.264-7.384s0.395-5.043,1.188-7.384
			c0.792-2.341,1.946-4.406,3.461-6.196s3.381-3.21,5.603-4.26s4.758-1.576,7.616-1.576c1.79,0,3.442,0.215,4.957,0.646
			c1.515,0.431,2.901,1.059,4.155,1.885c1.255,0.826,2.402,1.833,3.434,3.02c1.034,1.188,1.979,2.54,2.84,4.055L488.061,646.785z"/>
		<path fill="#0071FE" d="M499.575,634.545h9.192v14.667l13.167-14.667h12.186l-13.375,13.941l13.788,22.825H524.31l-10.019-16.316
			l-5.526,5.628v10.688h-9.192v-36.767H499.575z"/>
	</g>
	<g>
		<path fill="#A0BA32" d="M542.893,650.778h5.025v15.86h7.846v4.232h-12.867v-20.093H542.893z"/>
		<path fill="#A0BA32" d="M558.3,650.778h5.024v15.86h7.846v4.232h-12.867v-20.093H558.3z"/>
		<path fill="#A0BA32" d="M573.707,650.778h9.961c1.355,0,2.503,0.169,3.442,0.509c0.939,0.339,1.707,0.808,2.301,1.41
			s1.022,1.315,1.285,2.146c0.263,0.829,0.395,1.74,0.395,2.738c0,0.676-0.113,1.411-0.34,2.2c-0.226,0.789-0.648,1.523-1.27,2.2
			c-0.621,0.676-1.478,1.245-2.567,1.707c-1.093,0.462-2.494,0.691-4.204,0.691h-3.923v6.49h-5.08V650.778z M578.731,660.656h4.232
			c0.563,0,1.043-0.086,1.438-0.254c0.395-0.171,0.716-0.395,0.96-0.676c0.245-0.282,0.423-0.606,0.536-0.974
			s0.168-0.746,0.168-1.142c0-1.016-0.254-1.787-0.762-2.313s-1.334-0.789-2.481-0.789h-4.092V660.656z"/>
	</g>
	<path fill="#0071FE" d="M459.624,606.666l-31.145-53.954l40.389-69.958h32.702c24.866,26.885,23.587,52.023,16.451,73.106
		C510.359,578.498,487.981,600.087,459.624,606.666z"/>
	<path fill="#A0BB32" d="M590.048,552.712l-40.39,69.967h-80.787l-7.037-12.2c18.724-2.586,53.1-15.245,69.942-45.447
		c15.251-27.359,13.111-58.309-6.821-82.277h24.7L590.048,552.712z"/>
</g>
</svg>
